<?xml version="1.0" encoding="utf-8"?>
<!-- Generator: Adobe Illustrator 24.3.0, SVG Export Plug-In . SVG Version: 6.00 Build 0)  -->
<svg version="1.1" id="Layer_1" xmlns="http://www.w3.org/2000/svg" xmlns:xlink="http://www.w3.org/1999/xlink" x="0px" y="0px"
	 viewBox="0 0 504 504" style="enable-background:new 0 0 504 504;" xml:space="preserve">
<style type="text/css">
	.st0{fill:#333333;}
	.st1{fill:#FFFFFF;}
</style>
<circle class="st0" cx="252" cy="250.5" r="250.5"/>
<g>
	<path class="st1" d="M122.6,124.1c4.3,7.7,3.1,17.3-3.1,23.6c-8.3,8.3-16.7,19.1-25.2,32.2c-3.1,4.9-5,7.4-5.2,7.6
		c-6,4.4-14.5,2.2-25.3-7.1c-1-0.9-1.7-2.2-1.8-3.5l0,0c-0.1-1.2,0.2-2.4,0.9-3.3c18.2-25.8,36.4-45.3,54.4-58.7L122.6,124.1z"/>
	<path class="st1" d="M382.8,231.9c7.9-16.2,11.6-27.5,13-35.3c1-5.4-6.4-8.1-9.1-3.3l-19.9,35.9l-10.6-1.8
		c-9.1-1.5-18.4-1.7-27.5-0.5l-21,2.7c-3.1-8.1-6.3-15.4-9.5-22c-2.9-6.3-33.3-65.1-34.5-67.9c-0.3-0.5-0.6-2.5-1.7-6.1
		c-0.7-2.5-1.4-4.6-2.1-5.6c-1.8-2.5-5.2-3.8-10.4-3.8c-4.8,0.4-9.6,2-13.8,4.9c-5.4,3.8-6.3,7.8-3.2,12.2
		c5.9,8.4,40.7,75.7,48.5,93.1c-19,4.9-37.7,11.8-56.4,20.8c-13.9-36.6-27-63.7-39.8-82c-5-7.1-11.6-11.3-19.6-12.7
		c-8-1-15.7,1.1-22.9,6.1c-18.7,13.1-37.7,32.7-57,58.7l0.2,3.9c11.3,10.8,20.3,13.7,26.7,9.2c0.2-0.2,2.2-2.7,5.4-7.5
		c12.7-18.5,25.1-32.3,37.2-40.8c3.4-2.4,7.1-0.9,10.7,4.3c8.8,12.6,20,37.5,33.8,74.5c-5.4,3.4-11,7-16.9,11.1
		c-17.8,12.5-29.9,26.1-36.5,40.3c-8.1,17.9-6.4,35,5,51.3c7.5,10.6,17.5,16.5,30.1,17.2c11.9,1.2,23-2.2,33.9-9.8
		c27.1-19.1,33.1-51.9,18.3-99.3c17.8-8.1,37.1-16.2,57.8-19.7c4.1,13.3,6.5,28.7,7.4,42c1.2,22.3-0.2,38.7-4,49.5
		c-1.9,4.7-4.5,9.4-7.9,14c12.8,7.9,22.2,10.2,27.6,6.4c3.5-2.4,6.5-9.7,9.9-21.6c6.4-25.1,4.3-60.3-6.2-96.3
		c10.4-0.7,22.4-0.8,32.7-0.4c-0.9,4-1.7,8.1-2.5,12.4c-3.7,21.4-2.7,39.6,2.7,54.3c6.9,18.4,20.2,29.3,39.8,32.7
		c12.8,2.2,24-0.7,33.4-9.1c9.3-7.6,14.7-17.8,17-30.9C446.8,280.4,426.8,255,382.8,231.9z M202.2,357.4c-4.9,3.5-9.9,5.2-15.3,4.9
		c-5.3-0.3-9.6-2.8-13.1-7.7c-11.8-16.7-3.6-35,25-55c3-2.1,5.9-3.7,8.8-5.9C216.5,327.5,214.8,348.6,202.2,357.4z M416.7,306.8
		c-1,5.9-3.3,10.7-7.4,14.3c-4,3.5-8.8,4.8-14.7,3.8c-20.2-3.5-27.3-22.2-21.2-56.6c0.6-3.6,1.6-6.8,2.1-10.4
		C405.7,275.5,419.4,291.7,416.7,306.8z"/>
</g>
</svg>
